# xmcd
#
# Track frame offsets:
#	150
#	36047
#	73297
#	96447
#	131503
#	137798
#	163291
#	170849
#	210361
#	225914
#	258069
#	264058
#	305530
#	324616
#
# Disc length: 4388
#
# Revision: 1
# Processed by: cddbd v1.5.1PL0 Copyright (c) Steve Scherf et al.
# Submitted via: CDex 1.51
# Normalized: r0:TRMNUM
#
DISCID=c311220e
DTITLE=The Shulman System - While We Sleep
DYEAR=2000
DGENRE=Jazz
TTITLE0=Midnight Bugle Call
TTITLE1=Coexistence
TTITLE2=Mack The Knife
TTITLE3=The Jody Grind
TTITLE4=Don't Get Sucked In
TTITLE5=Little Willie Sleeps
TTITLE6=Piece for Peace
TTITLE7=The Shofar
TTITLE8=Exist
TTITLE9=Steeped Willie Leaps
TTITLE10=Psychic Invasion
TTITLE11=Mouse Food
TTITLE12=Bye Bye Blackbird
TTITLE13=Sunrise Bugle Call
EXTD=YEAR: 2000
EXTT0=
EXTT1=
EXTT2=
EXTT3=
EXTT4=
EXTT5=
EXTT6=
EXTT7=
EXTT8=
EXTT9=
EXTT10=
EXTT11=
EXTT12=
EXTT13=
PLAYORDER=
